<svg width="837" height="844" viewBox="0 0 837 844" fill="none" xmlns="http://www.w3.org/2000/svg">
<g opacity="0.5">
<path d="M777.68 446.352L611.813 115.883C596.531 85.4292 569.944 62.2941 537.898 51.5651C505.852 40.8362 470.971 43.3919 440.926 58.6702L126.492 218.681L392.467 303.047C403.075 306.406 412.936 311.843 421.485 319.047C430.034 326.25 437.104 335.079 442.291 345.029C447.477 354.979 450.679 365.854 451.712 377.032C452.745 388.211 451.59 399.475 448.313 410.179L329.847 797.856C352.707 799.633 375.582 795.078 396.008 784.68L722.021 618.884C736.904 611.315 750.151 600.848 761.004 588.079C771.857 575.311 780.104 560.492 785.272 544.47C790.441 528.447 792.431 511.535 791.129 494.699C789.826 477.864 785.256 461.435 777.68 446.352Z" fill="url(#paint0_linear_7619_5120)"/>
<path d="M59.2951 396.985L225.103 727.491C234.249 745.673 247.549 761.406 263.895 773.378L368.931 429.561C371.259 421.94 372.078 413.922 371.34 405.965C370.601 398.008 368.321 390.267 364.628 383.185C360.935 376.102 355.903 369.817 349.818 364.689C343.733 359.56 336.714 355.688 329.164 353.294L65.5063 269.672C53.5785 288.444 46.73 310.069 45.6405 332.402C44.5509 354.735 49.2582 376.999 59.2951 396.985Z" fill="url(#paint1_linear_7619_5120)"/>
</g>
<defs>
<linearGradient id="paint0_linear_7619_5120" x1="392.359" y1="66.1086" x2="551.117" y2="752.584" gradientUnits="userSpaceOnUse">
<stop stop-color="#1B5F93"/>
<stop offset="1" stop-color="#4B81B3" stop-opacity="0.21"/>
</linearGradient>
<linearGradient id="paint1_linear_7619_5120" x1="177.266" y1="243.826" x2="297.913" y2="765.51" gradientUnits="userSpaceOnUse">
<stop stop-color="#1B5F93"/>
<stop offset="1" stop-color="#4B81B3" stop-opacity="0.21"/>
</linearGradient>
</defs>
</svg>
